<svg xmlns="http://www.w3.org/2000/svg" width="20" height="19.507" viewBox="0 0 20 19.507">
  <path id="パス_9" data-name="パス 9" d="M10,0A10,10,0,0,0,6.838,19.487c.5.088.687-.212.687-.475,0-.238-.012-1.025-.012-1.863C5,17.613,4.35,16.537,4.15,15.975a3.636,3.636,0,0,0-1.025-1.413c-.35-.187-.85-.65-.013-.662A2,2,0,0,1,4.65,14.925a2.137,2.137,0,0,0,2.912.825A2.1,2.1,0,0,1,8.2,14.413c-2.225-.25-4.55-1.113-4.55-4.937A3.892,3.892,0,0,1,4.675,6.787a3.593,3.593,0,0,1,.1-2.65s.837-.262,2.75,1.025a9.428,9.428,0,0,1,5,0c1.912-1.3,2.75-1.025,2.75-1.025a3.593,3.593,0,0,1,.1,2.65A3.869,3.869,0,0,1,16.4,9.475c0,3.837-2.337,4.687-4.563,4.937a2.368,2.368,0,0,1,.675,1.85c0,1.338-.012,2.413-.012,2.75,0,.263.187.575.687.475A10.005,10.005,0,0,0,10,0Z" fill="#fff" fill-rule="evenodd"/>
</svg>
