<svg xmlns="http://www.w3.org/2000/svg" width="25" height="20.314" viewBox="0 0 25 20.314">
  <path id="パス_8" data-name="パス 8" d="M82.862,118.766a14.5,14.5,0,0,0,14.594-14.594c0-.222,0-.443-.015-.663A10.437,10.437,0,0,0,100,100.854a10.241,10.241,0,0,1-2.946.807,5.147,5.147,0,0,0,2.255-2.837,10.278,10.278,0,0,1-3.257,1.245,5.134,5.134,0,0,0-8.741,4.678A14.562,14.562,0,0,1,76.74,99.388a5.133,5.133,0,0,0,1.588,6.847A5.092,5.092,0,0,1,76,105.593v.065a5.131,5.131,0,0,0,4.115,5.028,5.123,5.123,0,0,1-2.316.088,5.135,5.135,0,0,0,4.792,3.562,10.292,10.292,0,0,1-6.37,2.2A10.46,10.46,0,0,1,75,116.462a14.521,14.521,0,0,0,7.862,2.3" transform="translate(-75 -98.452)" fill="#fff"/>
</svg>
